<svg width="80" height="108" viewBox="0 0 80 108" fill="none" xmlns="http://www.w3.org/2000/svg">
<path d="M0.000396729 62.2859L0.00245333 84.4554L39.9872 107.692V85.7076L0.000396729 62.2859Z" fill="#3E4784"/>
<path d="M80 62.2859L79.9979 84.4554L40.0132 107.692V85.7076L80 62.2859Z" fill="#181D27"/>
<path d="M39.9807 0L39.9827 22.1695L79.9675 45.4065V23.4217L39.9807 0Z" fill="#181D27"/>
<path d="M39.9868 0L39.9848 22.1695L7.62939e-06 45.4065V23.4217L39.9868 0Z" fill="#3E4784"/>
<path d="M0.000396729 23.4234V84.4553L16.848 94.2522L16.9008 55.4666L39.9872 68.8299V46.8451L0.000396729 23.4234Z" fill="#181D27"/>
<path d="M79.9671 23.4234V84.4553L63.0667 94.2944V55.4666L39.9803 68.8299V46.8451L79.9671 23.4234Z" fill="#3E4784"/>
</svg>
